<svg width="180" height="55" viewBox="0 0 180 55" fill="none" xmlns="http://www.w3.org/2000/svg">
<path d="M43.945 0.0831543L22.9365 9.5669C22.7098 9.64522 22.4636 9.64522 22.2369 9.5669L1.22649 0.0831543C1.09714 0.0306739 0.957133 0.0105019 0.81839 0.0243555C0.675991 0.0359811 0.537288 0.0759494 0.410294 0.141953C0.286062 0.209081 0.184553 0.31212 0.118795 0.437845C0.0457405 0.56276 0.00560145 0.704454 0.00219694 0.849439V9.9159C-0.00704511 10.0365 0.0129636 10.1576 0.0604961 10.2687C0.104055 10.3899 0.186017 10.4932 0.293693 10.5627L13.2494 20.0976L6.36249 17.2734C6.27132 17.2308 6.17141 17.2106 6.071 17.2146C5.97 17.1992 5.86684 17.22 5.7795 17.2734L0.468593 19.6842C0.327857 19.7486 0.206997 19.8502 0.118795 19.9781C0.0459625 20.1243 0.00614314 20.285 0.00219694 20.4485V54.1746C-0.000637999 54.2836 0.0185204 54.392 0.0585103 54.4933C0.0985002 54.5946 0.158485 54.6866 0.234822 54.7637C0.311159 54.8409 0.402253 54.9016 0.502572 54.9422C0.602891 54.9828 0.71034 55.0023 0.81839 54.9997H44.1782C44.2864 55.0026 44.3941 54.9832 44.4946 54.9428C44.5952 54.9023 44.6865 54.8416 44.763 54.7644C44.8396 54.6872 44.8997 54.5951 44.9398 54.4937C44.9799 54.3923 44.9992 54.2838 44.9963 54.1746V20.5073C44.9852 20.3448 44.9457 20.1856 44.8797 20.0369C44.7913 19.9084 44.6697 19.8068 44.528 19.743L39.219 17.3303C39.1271 17.2878 39.0266 17.2676 38.9256 17.2715C38.8246 17.2561 38.7215 17.2769 38.6341 17.3303L31.7491 20.0958L44.7029 10.5608C44.8116 10.492 44.8943 10.3885 44.938 10.2668C44.9859 10.1565 45.0065 10.0361 44.9982 9.9159V0.849439C44.9867 0.70582 44.947 0.565928 44.8816 0.437845C44.8152 0.311986 44.713 0.208967 44.5882 0.141953C44.4644 0.0682723 44.3239 0.0277892 44.1801 0.0243555C44.2459 -0.0344437 44.0579 0.0243551 43.945 0.0831543ZM39.5105 30.2111H37.1766C37.0748 30.1956 36.9708 30.2171 36.8833 30.2718C36.7667 30.3306 36.7084 30.3894 36.5918 30.4482C36.5207 30.5379 36.4619 30.6368 36.4169 30.7422C36.3746 30.8341 36.3546 30.9349 36.3586 31.0362V45.3472C36.3611 45.456 36.3418 45.5642 36.3017 45.6652C36.2616 45.7663 36.2016 45.8581 36.1252 45.935C36.0489 46.012 35.9579 46.0725 35.8577 46.113C35.7576 46.1534 35.6503 46.173 35.5424 46.1704H28.5389C28.431 46.173 28.3237 46.1534 28.2235 46.113C28.1233 46.0725 28.0323 46.012 27.956 45.935C27.8797 45.8581 27.8197 45.7663 27.7796 45.6652C27.7395 45.5642 27.7201 45.456 27.7227 45.3472V40.2259C27.7187 40.0808 27.6779 39.9391 27.6042 39.8144C27.5309 39.6731 27.4051 39.5667 27.2544 39.5185L22.7033 37.2291L18.6186 35.1692C18.5579 35.1315 18.4902 35.1067 18.4197 35.0966C18.3491 35.0865 18.2773 35.0912 18.2086 35.1104C18.0662 35.122 17.9275 35.162 17.8005 35.228C17.6764 35.2944 17.5749 35.3968 17.509 35.522C17.4357 35.6475 17.3956 35.7899 17.3924 35.9355V45.4192C17.395 45.528 17.3756 45.6363 17.3355 45.7373C17.2954 45.8384 17.2354 45.9301 17.1591 46.0071C17.0828 46.0841 16.9918 46.1446 16.8916 46.1851C16.7914 46.2255 16.6841 46.245 16.5762 46.2424H9.63103C9.52306 46.245 9.41569 46.2255 9.3154 46.1851C9.21511 46.1447 9.12398 46.0841 9.04752 46.0072C8.97107 45.9303 8.91086 45.8385 8.87054 45.7374C8.83023 45.6364 8.81064 45.5281 8.81296 45.4192V31.1026C8.82824 31.0007 8.80761 30.8967 8.75466 30.8086C8.68361 30.7189 8.62479 30.62 8.57976 30.5146C8.49084 30.4429 8.39279 30.3836 8.28826 30.3382C8.19709 30.2956 8.09718 30.2754 7.99676 30.2794H5.6629L22.2425 21.9204C22.3435 21.8441 22.4662 21.8028 22.5923 21.8028C22.7185 21.8028 22.8412 21.8441 22.9421 21.9204L39.5105 30.2111Z" fill="black"/>
<path d="M160.04 11.1176H150.089C149.946 11.121 149.806 11.1601 149.683 11.2314C149.556 11.3185 149.456 11.4368 149.392 11.5743L136.301 40.7704C136.221 40.8975 136.124 41.0124 136.01 41.1115C135.883 41.1754 135.744 41.214 135.601 41.2252C135.458 41.2219 135.318 41.1827 135.194 41.1115C135.055 41.0399 134.951 40.9172 134.904 40.7704C133.332 37.3554 131.994 34.3952 131.587 33.4342C131.509 33.2125 131.509 32.9719 131.587 32.7501C132.635 30.4099 139.027 16.4107 140.902 12.2529C140.949 12.1257 140.969 11.9901 140.96 11.8549C140.949 11.7161 140.909 11.5808 140.844 11.4569C140.778 11.3354 140.677 11.2357 140.553 11.1708C140.43 11.0996 140.29 11.0604 140.146 11.0571H131.238C131.115 11.0689 130.995 11.1078 130.889 11.1708C130.769 11.214 130.667 11.2946 130.599 11.4001L121.224 24.0348L123.957 17.3185C124.005 17.2111 124.025 17.094 124.016 16.9774C124.024 16.8602 124.005 16.7425 123.957 16.6344C123.144 14.9288 122.386 13.2213 121.572 11.4569C121.493 11.3292 121.395 11.2136 121.282 11.114C121.154 11.0501 121.016 11.0115 120.873 11.0003H86.0877C85.9798 10.9975 85.8725 11.0162 85.7723 11.0553C85.672 11.0945 85.581 11.1531 85.5047 11.2278C85.4284 11.3024 85.3684 11.3915 85.3284 11.4895C85.2884 11.5876 85.2693 11.6925 85.2721 11.7981V37.9294H85.1559C85.0977 37.9294 85.0977 37.8726 85.0396 37.8726L65.5395 11.3524C65.4706 11.2464 65.3677 11.1658 65.247 11.1231C65.1372 11.0768 65.0175 11.0573 64.8982 11.0663H56.8207C56.7129 11.0638 56.6056 11.0827 56.5055 11.1219C56.4054 11.1611 56.3145 11.2198 56.2382 11.2944C56.1619 11.369 56.102 11.4579 56.0619 11.5558C56.0218 11.6538 56.0025 11.7586 56.005 11.8641V54.1442C55.9893 54.2429 56.0107 54.3439 56.065 54.4284C56.1232 54.5422 56.1813 54.599 56.2394 54.7127C56.2975 54.7714 56.4138 54.8283 56.4719 54.8851C56.5612 54.9311 56.6621 54.9508 56.7625 54.942H65.4907C65.5984 54.9442 65.7054 54.9251 65.8053 54.8858C65.9052 54.8465 65.9959 54.7878 66.0719 54.7132C66.148 54.6387 66.2078 54.5498 66.2478 54.452C66.2878 54.3542 66.307 54.2495 66.3045 54.1442V39.6883L66.2464 30.7528C66.2417 30.5848 66.3043 30.4216 66.4207 30.298C66.5308 30.1724 66.6704 30.0748 66.8276 30.0137C66.9978 29.9569 67.1824 29.9569 67.3526 30.0137C67.5098 30.0748 67.6494 30.1724 67.7595 30.298C72.072 36.387 82.0715 50.4449 85.0977 54.6559C85.1658 54.7618 85.2681 54.8425 85.3884 54.8851C85.5046 54.942 85.6209 54.942 85.7371 54.9988H120.474C120.777 54.977 121.073 54.8998 121.347 54.7714C121.6 54.5983 121.801 54.362 121.929 54.0873L124.081 49.4215C124.128 49.3134 124.148 49.1958 124.139 49.0786C124.148 48.9619 124.129 48.8448 124.081 48.7374L121.347 42.0212L130.424 54.2524L130.715 54.6504C130.783 54.7563 130.885 54.837 131.006 54.8796C131.115 54.926 131.235 54.9455 131.354 54.9365H140.542C140.702 54.9256 140.86 54.8871 141.007 54.8228C141.12 54.7222 141.219 54.6068 141.299 54.4798L144.149 47.5948C144.172 47.5218 144.21 47.4539 144.26 47.395C144.31 47.3362 144.371 47.2875 144.44 47.2519C144.506 47.204 144.581 47.1693 144.661 47.1498C144.741 47.1302 144.824 47.1263 144.905 47.1381H165.504C165.653 47.1376 165.8 47.1807 165.924 47.2621C166.048 47.3435 166.145 47.4594 166.201 47.5948L169.051 54.5366C169.1 54.6837 169.205 54.8067 169.344 54.8796C169.41 54.9275 169.485 54.9622 169.565 54.9817C169.645 55.0012 169.728 55.0052 169.809 54.9933H179.184C179.326 54.9821 179.464 54.9434 179.591 54.8796C179.715 54.8147 179.816 54.7151 179.882 54.5935C179.946 54.4898 179.986 54.3732 179.998 54.2524C180.007 54.1172 179.987 53.9816 179.94 53.8544C173.656 39.7433 167.352 25.6316 161.028 11.5193C160.949 11.3916 160.851 11.276 160.738 11.1763C160.331 11.1745 160.214 11.1176 160.04 11.1176ZM119.369 33.4287L111.164 49.5921V47.2574C111.167 47.1521 111.147 47.0475 111.107 46.9498C111.067 46.8521 111.008 46.7633 110.932 46.6889C110.855 46.6145 110.765 46.556 110.665 46.5169C110.565 46.4777 110.458 46.4589 110.35 46.4614H97.1428C96.7123 46.4472 96.3005 46.2863 95.9784 46.0065C95.8278 45.8562 95.7091 45.6781 95.6293 45.4826C95.5495 45.2871 95.5101 45.0781 95.5134 44.8676V39.6883C95.5083 39.4776 95.5469 39.2681 95.627 39.0725C95.7071 38.8768 95.8269 38.6991 95.9792 38.5501C96.1316 38.4011 96.3132 38.2839 96.5132 38.2056C96.7133 38.1273 96.9274 38.0895 97.1428 38.0945H100.808C101.115 38.0999 101.417 38.0211 101.68 37.8671C101.918 37.7023 102.116 37.4889 102.262 37.2417L104.3 33.2581L106.336 29.2728C106.373 29.214 106.398 29.1483 106.408 29.0798C106.418 29.0113 106.413 28.9415 106.394 28.8748C106.383 28.7359 106.343 28.6007 106.278 28.4768C106.212 28.3552 106.11 28.2561 105.985 28.1925C105.862 28.1213 105.722 28.0821 105.578 28.0788H96.3272C96.2195 28.0813 96.1123 28.0624 96.0123 28.0232C95.9123 27.984 95.8215 27.9253 95.7454 27.8507C95.6692 27.776 95.6094 27.6871 95.5696 27.5891C95.5297 27.4912 95.5106 27.3864 95.5134 27.281V20.5666C95.5289 20.3576 95.6101 20.1583 95.7459 19.9962C95.8203 19.9196 95.9108 19.8596 96.0111 19.8204C96.1115 19.7811 96.2193 19.7635 96.3272 19.7688H109.535C109.965 19.7546 110.377 19.5937 110.699 19.314C110.85 19.1637 110.969 18.9857 111.049 18.7902C111.128 18.5946 111.168 18.3855 111.164 18.175V16.6968L119.369 32.8583C119.434 32.9627 119.473 33.0799 119.485 33.2013C119.485 33.2453 119.474 33.2885 119.454 33.3279C119.434 33.3672 119.405 33.4017 119.369 33.4287ZM148.286 37.1848L154.336 22.7289C154.385 22.5823 154.49 22.4598 154.629 22.3878C154.695 22.3399 154.77 22.3052 154.85 22.2857C154.93 22.2662 155.012 22.2623 155.094 22.2741C155.254 22.285 155.412 22.3234 155.559 22.3878C155.672 22.4869 155.77 22.6018 155.849 22.7289L161.786 37.1848C161.838 37.311 161.858 37.4475 161.844 37.5828C161.832 37.7036 161.792 37.8202 161.728 37.9239C161.668 38.0376 161.551 38.0945 161.435 38.2082C161.329 38.2712 161.21 38.3101 161.086 38.3219H149.152C149.014 38.331 148.875 38.3117 148.745 38.2651C148.636 38.2041 148.538 38.1274 148.453 38.0376C148.388 37.9339 148.348 37.8173 148.336 37.6965C148.228 37.4122 148.228 37.2985 148.286 37.1848Z" fill="black"/>
</svg>
